<svg xmlns="http://www.w3.org/2000/svg" width="20" height="20" fill="none"><path fill="#F3BA2F" d="M10 20c5.523 0 10-4.477 10-10S15.523 0 10 0 0 4.477 0 10s4.477 10 10 10Z"/><path fill="#fff" d="M7.281 8.883 10 6.164l2.72 2.72 1.582-1.582L10 3 5.7 7.3 7.28 8.884ZM3 10l1.582-1.582L6.164 10l-1.582 1.582L3 10Zm4.281 1.117L10 13.836l2.72-2.72 1.583 1.581L10 17l-4.3-4.3-.003-.003 1.584-1.58Zm6.555-1.116 1.582-1.582L17 10l-1.582 1.582L13.836 10Z"/><path fill="#fff" d="m11.605 10-1.604-1.606L8.814 9.58l-.136.137-.281.28-.002.003.002.002L10 11.606l1.605-1.605v-.002"/></svg>