<svg xmlns="http://www.w3.org/2000/svg" width="20" height="20" fill="none"><path fill="#8247E5" d="M10 20c5.523 0 10-4.477 10-10S15.523 0 10 0 0 4.477 0 10s4.477 10 10 10Z"/><path fill="#fff" d="M13.31 7.86a.846.846 0 0 0-.816 0l-1.87 1.07-1.272.698-1.87 1.07a.846.846 0 0 1-.816 0L5.18 9.86a.798.798 0 0 1-.408-.674V7.535a.75.75 0 0 1 .408-.675l1.463-.813c.24-.14.552-.14.816 0l1.463.813c.24.14.407.396.407.675v1.07l1.272-.721v-1.07a.75.75 0 0 0-.408-.674l-2.71-1.535a.846.846 0 0 0-.816 0L3.908 6.14a.75.75 0 0 0-.408.674v3.093a.75.75 0 0 0 .408.674l2.758 1.535c.24.14.552.14.816 0l1.87-1.046 1.272-.721 1.87-1.047c.24-.14.552-.14.816 0l1.463.814c.24.14.408.396.408.675v1.65a.75.75 0 0 1-.408.675l-1.463.838a.847.847 0 0 1-.816 0l-1.463-.815a.798.798 0 0 1-.407-.674v-1.07l-1.272.721v1.07c0 .28.144.535.408.675l2.758 1.534c.24.14.552.14.816 0l2.758-1.534a.798.798 0 0 0 .408-.675v-3.093a.75.75 0 0 0-.408-.674L13.31 7.86Z"/></svg>