<svg xmlns="http://www.w3.org/2000/svg" width="24" height="24" fill="none"><circle cx="12" cy="12" r="12" fill="#50AF95"/><path fill="#fff" fill-rule="evenodd" d="M13.6 13.08a34.35 34.35 0 0 1-3.17 0c-3.15-.13-5.5-.68-5.5-1.34 0-.65 2.35-1.2 5.5-1.34v2.14a23.7 23.7 0 0 0 3.16 0V10.4c3.14.14 5.48.69 5.48 1.34 0 .66-2.34 1.2-5.48 1.34Zm0-2.9V8.26h4.37V5.34H6.04v2.92h4.38v1.92c-3.56.16-6.24.87-6.24 1.71 0 .85 2.68 1.55 6.24 1.72v6.13h3.17V13.6c3.55-.16 6.23-.86 6.23-1.7 0-.85-2.67-1.56-6.23-1.72Z" clip-rule="evenodd"/></svg>