<svg width="20" height="20" viewBox="0 0 20 20" fill="none" xmlns="http://www.w3.org/2000/svg">
<path d="M10 20C15.5228 20 20 15.5228 20 10C20 4.47715 15.5228 0 10 0C4.47715 0 0 4.47715 0 10C0 15.5228 4.47715 20 10 20Z" fill="#F3BA2F"/>
<path d="M7.28107 8.88289L9.99997 6.16399L12.7202 8.88406L14.3022 7.30207L9.99997 3L5.69919 7.30078L7.28113 8.88278L7.28107 8.88289ZM3 9.99997L4.58205 8.4177L6.16399 9.99964L4.58194 11.5817L3 9.99997ZM7.28107 11.1172L9.99997 13.836L12.7201 11.1159L14.3029 12.6971L14.3022 12.6979L9.99997 16.9999L5.69919 12.6992L5.69695 12.6969L7.28124 11.1171L7.28107 11.1172ZM13.836 10.0006L15.418 8.41859L16.9999 10.0005L15.4179 11.5826L13.836 10.0006Z" fill="white"/>
<path d="M11.6051 9.99939H11.6058L10.0006 8.39404L8.81419 9.58022L8.67788 9.71658L8.39677 9.99777L8.39453 9.99995L8.39677 10.0022L10.0006 11.6064L11.6059 10.0011L11.6067 10.0002L11.6052 9.99939" fill="white"/>
</svg>
